<svg width="31" height="18" viewBox="0 0 31 18" fill="none" xmlns="http://www.w3.org/2000/svg">
<path d="M15.0737 13.3131C14.462 14.2746 13.8751 15.2152 12.5599 16.129C11.8564 16.6221 10.2371 17.5856 7.9355 17.5856C3.54431 17.5856 0 14.3931 0 8.78037C0 3.875 3.33406 0 8.02913 0C9.93125 0 11.6212 0.657563 12.8658 1.644C14.0167 2.55963 14.5557 3.4755 15.026 4.2975L11.7397 5.93956C11.5046 5.40044 11.2216 4.8365 10.4952 4.22669C9.69619 3.592 8.89894 3.40469 8.21644 3.40469C5.54012 3.40469 4.13119 5.89375 4.13119 8.66375C4.13119 12.3036 5.98744 14.1102 8.21644 14.1102C10.3766 14.1102 11.2464 12.6076 11.8086 11.6461L15.0737 13.3131V13.3131ZM26.5859 0.516187H31L25.2477 17.0924H21.0229L15.3414 0.516187H19.7554L23.1831 12.3037L26.5859 0.516187Z" fill="#D9BEA5"/>
</svg>
