<svg width="480" height="480" viewBox="0 0 480 480" fill="none" xmlns="http://www.w3.org/2000/svg">
<path fill-rule="evenodd" clip-rule="evenodd" d="M254.822 429.535C257.934 427.888 261.13 428.387 263.858 430.473C265.144 431.456 266.009 432.571 266.494 433.843C266.978 435.113 267.073 436.509 266.867 438.041C266.705 439.247 265.99 440.056 265.079 440.644C264.225 441.195 263.162 441.575 262.177 441.928C262.134 441.943 262.092 441.958 262.05 441.973C260.998 442.35 260.052 442.701 259.37 443.196C258.72 443.668 258.333 444.252 258.362 445.134C258.388 445.972 258.819 447.017 259.28 447.893C259.506 448.322 259.73 448.695 259.898 448.96C259.982 449.092 260.052 449.198 260.1 449.269C260.124 449.305 260.143 449.332 260.155 449.351L260.169 449.371L260.172 449.375L259.387 449.874L259.385 449.871L259.38 449.864L259.364 449.84C259.349 449.819 259.329 449.789 259.302 449.75C259.25 449.673 259.176 449.56 259.088 449.42C258.91 449.14 258.673 448.747 258.434 448.292C257.965 447.4 257.45 446.206 257.417 445.161C257.378 443.94 257.95 443.098 258.795 442.485C259.608 441.895 260.693 441.502 261.715 441.136L261.795 441.107C262.819 440.74 263.788 440.394 264.546 439.904C265.304 439.416 265.81 438.811 265.929 437.928C266.121 436.497 266.025 435.25 265.605 434.147C265.186 433.049 264.434 432.064 263.265 431.17C260.79 429.278 258.009 428.874 255.284 430.317C254.675 430.639 254.01 431.261 253.477 431.836C253.216 432.118 252.996 432.378 252.842 432.568C252.765 432.662 252.704 432.739 252.663 432.792L252.617 432.852L252.606 432.867L252.603 432.87L251.831 432.353L251.833 432.351L251.837 432.346L251.85 432.328L251.902 432.261C251.947 432.203 252.011 432.121 252.093 432.021C252.257 431.82 252.49 431.544 252.767 431.245C253.31 430.658 254.064 429.937 254.822 429.535ZM226.705 439.148C225.874 439.64 225.273 440.403 225.273 441.566H224.328C224.328 440.043 225.145 439.015 226.204 438.388C227.243 437.774 230.824 437.042 231.834 437.042V437.98C230.954 437.98 227.558 438.643 226.705 439.148Z" fill="white"/>
<path d="M263.693 450.523C264.559 452.336 264.159 454.333 262.799 454.983C261.439 455.632 259.634 454.689 258.768 452.876C257.902 451.063 258.302 449.066 259.662 448.416C261.022 447.766 262.827 448.71 263.693 450.523Z" fill="white"/>
<path fill-rule="evenodd" clip-rule="evenodd" d="M253.699 435.19C252.17 429.319 247.411 425.038 241.777 425.038C236.143 425.038 231.384 429.319 229.855 435.19C229.52 436.477 229.34 437.84 229.34 439.252H254.214C254.214 437.84 254.034 436.477 253.699 435.19ZM249.921 435.19C248.551 431.605 245.42 429.099 241.777 429.099C238.134 429.099 235.003 431.605 233.632 435.19H249.921Z" fill="white"/>
<path fill-rule="evenodd" clip-rule="evenodd" d="M187.838 419.708L214.872 465.824H268.94L295.973 419.708L268.94 373.591H214.872L187.838 419.708ZM211.701 368.183L181.497 419.708L211.701 471.233H272.11L302.315 419.708L272.11 368.183H211.701Z" fill="#00E4A2"/>
<path fill-rule="evenodd" clip-rule="evenodd" d="M263.42 400.795H220.778V422.115H263.42V400.795ZM220.778 397.241C218.816 397.241 217.225 398.832 217.225 400.795V422.115C217.225 424.078 218.816 425.669 220.778 425.669H263.42C265.382 425.669 266.973 424.078 266.973 422.115V400.795C266.973 398.832 265.382 397.241 263.42 397.241H220.778Z" fill="white"/>
<path fill-rule="evenodd" clip-rule="evenodd" d="M240.285 443.839L215.074 440.203L213.776 449.207L238.986 452.843L240.285 443.839ZM213.533 438.143L211.715 450.748L240.527 454.903L242.345 442.298L213.533 438.143Z" fill="white"/>
<path d="M216.615 442.264L218.416 442.523L218.157 444.324L216.356 444.064L216.615 442.264Z" fill="white"/>
<path d="M220.217 442.783L222.017 443.043L221.758 444.844L219.957 444.584L220.217 442.783Z" fill="white"/>
<path d="M223.818 443.303L225.619 443.562L225.359 445.363L223.559 445.103L223.818 443.303Z" fill="white"/>
<path d="M227.419 443.822L229.22 444.082L228.96 445.883L227.16 445.623L227.419 443.822Z" fill="white"/>
<path d="M231.021 444.342L234.623 444.861L234.363 446.662L230.762 446.142L231.021 444.342Z" fill="white"/>
<path d="M236.423 445.121L238.224 445.38L237.445 450.783L233.843 450.263L234.103 448.462L235.904 448.722L236.423 445.121Z" fill="white"/>
<path d="M216.096 445.865L217.896 446.125L217.637 447.926L215.836 447.666L216.096 445.865Z" fill="white"/>
<path d="M219.698 446.385L221.498 446.645L221.239 448.445L219.438 448.186L219.698 446.385Z" fill="white"/>
<path d="M223.299 446.904L228.701 447.683L228.441 449.484L223.039 448.705L223.299 446.904Z" fill="white"/>
<path d="M230.502 447.943L232.303 448.203L232.043 450.004L230.242 449.744L230.502 447.943Z" fill="white"/>
<path fill-rule="evenodd" clip-rule="evenodd" d="M251.011 70.3526C254.122 68.7057 257.319 69.2044 260.047 71.2905C261.332 72.2732 262.197 73.3882 262.682 74.6608C263.166 75.93 263.261 77.3265 263.055 78.8586C262.893 80.0647 262.179 80.8733 261.267 81.4617C260.413 82.0127 259.35 82.3928 258.365 82.7451C258.323 82.7603 258.28 82.7755 258.238 82.7906C257.186 83.1673 256.241 83.5183 255.559 84.0133C254.909 84.4851 254.522 85.0694 254.55 85.9518C254.577 86.7892 255.008 87.8341 255.469 88.71C255.695 89.1392 255.919 89.512 256.087 89.7774C256.171 89.9099 256.24 90.0152 256.288 90.0868C256.312 90.1226 256.331 90.1499 256.344 90.168L256.358 90.1881L256.361 90.1928L255.575 90.691L255.573 90.6883L255.569 90.6818L255.552 90.6577C255.538 90.6368 255.517 90.6066 255.491 90.5677C255.439 90.4901 255.365 90.3779 255.276 90.2378C255.099 89.9578 254.862 89.5643 254.623 89.1095C254.153 88.2175 253.639 87.0237 253.605 85.9789C253.566 84.757 254.139 83.9158 254.984 83.3026C255.797 82.7126 256.882 82.319 257.904 81.9531L257.984 81.9244C259.008 81.5578 259.976 81.2112 260.735 80.7217C261.492 80.233 261.999 79.628 262.117 78.7456C262.31 77.314 262.213 76.0672 261.793 74.9649C261.374 73.866 260.622 72.8811 259.453 71.9872C256.979 70.0952 254.197 69.6918 251.472 71.1342C250.863 71.4565 250.199 72.0781 249.666 72.6531C249.405 72.935 249.185 73.1954 249.03 73.3851C248.953 73.4799 248.893 73.5567 248.852 73.6094L248.805 73.6695L248.794 73.6844L248.791 73.6879L248.02 73.1706L248.021 73.1685L248.025 73.1635L248.039 73.1453L248.09 73.0784C248.135 73.0209 248.2 72.9388 248.282 72.8382C248.445 72.6374 248.678 72.3619 248.955 72.0627C249.499 71.4756 250.252 70.7541 251.011 70.3526ZM222.894 79.9652C222.062 80.4576 221.462 81.2205 221.462 82.3837H220.516C220.516 80.8607 221.334 79.8329 222.393 79.2059C223.431 78.5912 227.013 77.8593 228.023 77.8593V78.7976C227.142 78.7976 223.746 79.4607 222.894 79.9652Z" fill="white"/>
<path d="M259.882 91.3405C260.748 93.1539 260.348 95.1505 258.988 95.8002C257.628 96.4499 255.823 95.5066 254.957 93.6933C254.09 91.88 254.491 89.8833 255.851 89.2336C257.211 88.5839 259.015 89.5272 259.882 91.3405Z" fill="white"/>
<path fill-rule="evenodd" clip-rule="evenodd" d="M249.887 76.0079C248.359 70.1367 243.599 65.8552 237.965 65.8552C232.331 65.8552 227.572 70.1367 226.043 76.0079C225.708 77.2947 225.528 78.6579 225.528 80.069H250.402C250.402 78.6579 250.223 77.2947 249.887 76.0079ZM246.11 76.0079C244.739 72.4222 241.608 69.9163 237.965 69.9163C234.323 69.9163 231.192 72.4222 229.821 76.0079H246.11Z" fill="white"/>
<path fill-rule="evenodd" clip-rule="evenodd" d="M184.027 60.5251L211.061 106.641H265.128L292.162 60.5251L265.128 14.4087H211.061L184.027 60.5251ZM207.89 9L177.686 60.5251L207.89 112.05H268.299L298.503 60.5251L268.299 9H207.89Z" fill="#00E4A2"/>
<path fill-rule="evenodd" clip-rule="evenodd" d="M259.608 41.612H216.967V62.9327H259.608V41.612ZM216.967 38.0585C215.004 38.0585 213.413 39.6495 213.413 41.612V62.9327C213.413 64.8952 215.004 66.4862 216.967 66.4862H259.608C261.571 66.4862 263.162 64.8952 263.162 62.9327V41.612C263.162 39.6495 261.571 38.0585 259.608 38.0585H216.967Z" fill="white"/>
<path fill-rule="evenodd" clip-rule="evenodd" d="M236.473 84.6568L211.263 81.0208L209.964 90.0245L235.174 93.6605L236.473 84.6568ZM209.722 78.9604L207.904 91.5655L236.715 95.7209L238.533 83.1158L209.722 78.9604Z" fill="white"/>
<path d="M212.804 83.0811L214.605 83.3409L214.345 85.1416L212.544 84.8819L212.804 83.0811Z" fill="white"/>
<path d="M216.405 83.6006L218.206 83.8603L217.946 85.6611L216.145 85.4014L216.405 83.6006Z" fill="white"/>
<path d="M220.007 84.1201L221.808 84.3798L221.548 86.1805L219.747 85.9208L220.007 84.1201Z" fill="white"/>
<path d="M223.608 84.6395L225.409 84.8992L225.149 86.6999L223.348 86.4402L223.608 84.6395Z" fill="white"/>
<path d="M227.21 85.159L230.811 85.6784L230.551 87.4791L226.95 86.9597L227.21 85.159Z" fill="white"/>
<path d="M232.612 85.9381L234.413 86.1978L233.633 91.6L230.032 91.0806L230.292 89.2799L232.092 89.5396L232.612 85.9381Z" fill="white"/>
<path d="M212.284 86.6828L214.085 86.9425L213.825 88.7432L212.025 88.4835L212.284 86.6828Z" fill="white"/>
<path d="M215.886 87.2022L217.687 87.4619L217.427 89.2627L215.626 89.0029L215.886 87.2022Z" fill="white"/>
<path d="M219.487 87.7217L224.89 88.5008L224.63 90.3015L219.228 89.5224L219.487 87.7217Z" fill="white"/>
<path d="M226.691 88.7605L228.491 89.0202L228.232 90.821L226.431 90.5613L226.691 88.7605Z" fill="white"/>
<path fill-rule="evenodd" clip-rule="evenodd" d="M375.82 378.087C378.932 376.44 382.128 376.939 384.856 379.025C386.141 380.008 387.006 381.123 387.492 382.395C387.975 383.665 388.07 385.061 387.864 386.593C387.702 387.799 386.988 388.608 386.076 389.196C385.222 389.747 384.159 390.127 383.174 390.48C383.132 390.495 383.089 390.51 383.047 390.525C381.995 390.902 381.05 391.253 380.368 391.748C379.718 392.22 379.331 392.804 379.359 393.686C379.386 394.524 379.817 395.569 380.278 396.445C380.504 396.874 380.728 397.247 380.896 397.512C380.98 397.645 381.049 397.75 381.097 397.821C381.122 397.857 381.14 397.885 381.153 397.903L381.167 397.923L381.17 397.927L380.384 398.426L380.382 398.423L380.378 398.416L380.361 398.392C380.347 398.371 380.326 398.341 380.3 398.302C380.248 398.225 380.174 398.113 380.085 397.972C379.908 397.692 379.671 397.299 379.432 396.844C378.962 395.952 378.448 394.758 378.414 393.714C378.375 392.492 378.948 391.65 379.793 391.037C380.606 390.447 381.691 390.054 382.713 389.688L382.793 389.659C383.817 389.292 384.785 388.946 385.544 388.456C386.301 387.968 386.808 387.363 386.926 386.48C387.119 385.049 387.023 383.802 386.602 382.7C386.183 381.601 385.431 380.616 384.262 379.722C381.788 377.83 379.006 377.426 376.281 378.869C375.672 379.191 375.008 379.813 374.475 380.388C374.214 380.67 373.994 380.93 373.839 381.12C373.762 381.215 373.702 381.291 373.661 381.344L373.614 381.404L373.603 381.419L373.6 381.423L372.829 380.905L372.83 380.903L372.834 380.898L372.848 380.88L372.9 380.813C372.944 380.756 373.009 380.673 373.091 380.573C373.254 380.372 373.487 380.097 373.764 379.797C374.308 379.21 375.061 378.489 375.82 378.087ZM347.703 387.7C346.871 388.192 346.271 388.955 346.271 390.118H345.325C345.325 388.595 346.143 387.568 347.202 386.941C348.24 386.326 351.822 385.594 352.832 385.594V386.532C351.951 386.532 348.555 387.195 347.703 387.7Z" fill="white"/>
<path d="M384.691 399.075C385.557 400.889 385.157 402.885 383.797 403.535C382.437 404.185 380.632 403.241 379.766 401.428C378.9 399.615 379.3 397.618 380.66 396.968C382.02 396.319 383.824 397.262 384.691 399.075Z" fill="white"/>
<path fill-rule="evenodd" clip-rule="evenodd" d="M374.697 383.743C373.168 377.871 368.409 373.59 362.774 373.59C357.14 373.59 352.381 377.871 350.852 383.743C350.517 385.029 350.337 386.393 350.337 387.804H375.212C375.212 386.393 375.032 385.029 374.697 383.743ZM370.919 383.743C369.548 380.157 366.417 377.651 362.774 377.651C359.132 377.651 356.001 380.157 354.63 383.743H370.919Z" fill="white"/>
<path fill-rule="evenodd" clip-rule="evenodd" d="M308.836 368.26L335.87 414.376H389.937L416.971 368.26L389.937 322.143H335.87L308.836 368.26ZM332.699 316.735L302.495 368.26L332.699 419.785H393.108L423.312 368.26L393.108 316.735H332.699Z" fill="#00E4A2"/>
<path fill-rule="evenodd" clip-rule="evenodd" d="M384.417 349.347H341.776V370.667H384.417V349.347ZM341.776 345.793C339.813 345.793 338.222 347.384 338.222 349.347V370.667C338.222 372.63 339.813 374.221 341.776 374.221H384.417C386.38 374.221 387.971 372.63 387.971 370.667V349.347C387.971 347.384 386.38 345.793 384.417 345.793H341.776Z" fill="white"/>
<path fill-rule="evenodd" clip-rule="evenodd" d="M361.282 392.391L336.072 388.756L334.773 397.759L359.984 401.395L361.282 392.391ZM334.531 386.695L332.713 399.3L361.525 403.456L363.343 390.85L334.531 386.695Z" fill="white"/>
<path d="M337.613 390.816L339.414 391.076L339.154 392.876L337.353 392.617L337.613 390.816Z" fill="white"/>
<path d="M341.214 391.335L343.015 391.595L342.755 393.396L340.954 393.136L341.214 391.335Z" fill="white"/>
<path d="M344.816 391.855L346.617 392.114L346.357 393.915L344.556 393.655L344.816 391.855Z" fill="white"/>
<path d="M348.417 392.374L350.218 392.634L349.958 394.435L348.157 394.175L348.417 392.374Z" fill="white"/>
<path d="M352.019 392.894L355.62 393.413L355.361 395.214L351.759 394.694L352.019 392.894Z" fill="white"/>
<path d="M357.421 393.673L359.222 393.933L358.442 399.335L354.841 398.815L355.101 397.015L356.901 397.274L357.421 393.673Z" fill="white"/>
<path d="M337.093 394.417L338.894 394.677L338.634 396.478L336.834 396.218L337.093 394.417Z" fill="white"/>
<path d="M340.695 394.937L342.496 395.197L342.236 396.997L340.435 396.738L340.695 394.937Z" fill="white"/>
<path d="M344.296 395.456L349.698 396.235L349.439 398.036L344.036 397.257L344.296 395.456Z" fill="white"/>
<path d="M351.5 396.495L353.3 396.755L353.041 398.556L351.24 398.296L351.5 396.495Z" fill="white"/>
<path fill-rule="evenodd" clip-rule="evenodd" d="M104.18 378.087C101.068 376.44 97.8723 376.939 95.144 379.025C93.8587 380.008 92.9936 381.123 92.5085 382.395C92.0246 383.665 91.9299 385.061 92.1358 386.593C92.2979 387.799 93.0121 388.608 93.9238 389.196C94.7777 389.747 95.8405 390.127 96.8256 390.48C96.8682 390.495 96.9106 390.51 96.9529 390.525C98.0047 390.902 98.95 391.253 99.6321 391.748C100.282 392.22 100.669 392.804 100.641 393.686C100.614 394.524 100.183 395.569 99.7223 396.445C99.4964 396.874 99.272 397.247 99.104 397.512C99.0202 397.645 98.9507 397.75 98.9026 397.821C98.8785 397.857 98.8598 397.885 98.8473 397.903L98.8334 397.923L98.8301 397.927L99.6157 398.426L99.6175 398.423L99.6221 398.416L99.6389 398.392C99.6532 398.371 99.6739 398.341 99.7 398.302C99.7522 398.225 99.8262 398.113 99.9149 397.972C100.092 397.692 100.329 397.299 100.568 396.844C101.038 395.952 101.552 394.758 101.586 393.714C101.625 392.492 101.052 391.65 100.207 391.037C99.3942 390.447 98.3091 390.054 97.2872 389.688L97.2072 389.659C96.183 389.292 95.2147 388.946 94.4562 388.456C93.6988 387.968 93.1923 387.363 93.0737 386.48C92.8813 385.049 92.9774 383.802 93.3977 382.7C93.8166 381.601 94.5687 380.616 95.7379 379.722C98.2123 377.83 100.994 377.426 103.719 378.869C104.328 379.191 104.992 379.813 105.525 380.388C105.786 380.67 106.006 380.93 106.161 381.12C106.238 381.215 106.298 381.291 106.339 381.344L106.386 381.404L106.397 381.419L106.4 381.423L107.171 380.905L107.17 380.903L107.166 380.898L107.152 380.88L107.1 380.813C107.056 380.756 106.991 380.673 106.909 380.573C106.746 380.372 106.513 380.097 106.236 379.797C105.692 379.21 104.939 378.489 104.18 378.087ZM132.297 387.7C133.129 388.192 133.729 388.955 133.729 390.118H134.675C134.675 388.595 133.857 387.568 132.798 386.941C131.76 386.326 128.178 385.594 127.168 385.594V386.532C128.049 386.532 131.445 387.195 132.297 387.7Z" fill="white"/>
<path d="M95.3092 399.075C94.443 400.889 94.8432 402.885 96.2032 403.535C97.5632 404.185 99.368 403.241 100.234 401.428C101.1 399.615 100.7 397.618 99.3402 396.968C97.9802 396.319 96.1755 397.262 95.3092 399.075Z" fill="white"/>
<path fill-rule="evenodd" clip-rule="evenodd" d="M105.303 383.743C106.832 377.871 111.591 373.59 117.226 373.59C122.86 373.59 127.619 377.871 129.148 383.743C129.483 385.029 129.663 386.393 129.663 387.804H104.788C104.788 386.393 104.968 385.029 105.303 383.743ZM109.081 383.743C110.452 380.157 113.583 377.651 117.226 377.651C120.868 377.651 123.999 380.157 125.37 383.743H109.081Z" fill="white"/>
<path fill-rule="evenodd" clip-rule="evenodd" d="M171.164 368.26L144.13 414.376H90.0629L63.0292 368.26L90.0629 322.143H144.13L171.164 368.26ZM147.301 316.735L177.505 368.26L147.301 419.785H86.8923L56.6879 368.26L86.8923 316.735H147.301Z" fill="#00E4A2"/>
<path fill-rule="evenodd" clip-rule="evenodd" d="M95.5829 349.347H138.224V370.667H95.5829V349.347ZM138.224 345.793C140.187 345.793 141.778 347.384 141.778 349.347V370.667C141.778 372.63 140.187 374.221 138.224 374.221H95.5829C93.6204 374.221 92.0295 372.63 92.0295 370.667V349.347C92.0295 347.384 93.6204 345.793 95.5829 345.793H138.224Z" fill="white"/>
<path fill-rule="evenodd" clip-rule="evenodd" d="M118.718 392.391L143.928 388.756L145.227 397.759L120.016 401.395L118.718 392.391ZM145.469 386.695L147.287 399.3L118.475 403.456L116.657 390.85L145.469 386.695Z" fill="white"/>
<path d="M142.387 390.816L140.586 391.076L140.846 392.876L142.647 392.617L142.387 390.816Z" fill="white"/>
<path d="M138.786 391.335L136.985 391.595L137.245 393.396L139.045 393.136L138.786 391.335Z" fill="white"/>
<path d="M135.184 391.855L133.383 392.114L133.643 393.915L135.444 393.655L135.184 391.855Z" fill="white"/>
<path d="M131.583 392.374L129.782 392.634L130.042 394.435L131.843 394.175L131.583 392.374Z" fill="white"/>
<path d="M127.981 392.894L124.38 393.413L124.64 395.214L128.241 394.694L127.981 392.894Z" fill="white"/>
<path d="M122.579 393.673L120.778 393.933L121.558 399.335L125.159 398.815L124.899 397.015L123.099 397.274L122.579 393.673Z" fill="white"/>
<path d="M142.907 394.417L141.106 394.677L141.366 396.478L143.166 396.218L142.907 394.417Z" fill="white"/>
<path d="M139.305 394.937L137.504 395.197L137.764 396.997L139.564 396.738L139.305 394.937Z" fill="white"/>
<path d="M135.704 395.456L130.301 396.235L130.561 398.036L135.963 397.257L135.704 395.456Z" fill="white"/>
<path d="M128.5 396.495L126.7 396.755L126.959 398.556L128.76 398.296L128.5 396.495Z" fill="white"/>
<path fill-rule="evenodd" clip-rule="evenodd" d="M432.508 249.944C435.62 248.297 438.816 248.796 441.544 250.882C442.829 251.864 443.694 252.979 444.18 254.252C444.663 255.521 444.758 256.918 444.552 258.45C444.39 259.656 443.676 260.465 442.764 261.053C441.91 261.604 440.847 261.984 439.862 262.336C439.82 262.352 439.777 262.367 439.735 262.382C438.683 262.759 437.738 263.11 437.056 263.605C436.406 264.076 436.019 264.661 436.047 265.543C436.074 266.38 436.505 267.425 436.966 268.301C437.192 268.73 437.416 269.103 437.584 269.369C437.668 269.501 437.737 269.606 437.785 269.678C437.809 269.714 437.828 269.741 437.841 269.759L437.855 269.779L437.858 269.784L437.072 270.282L437.07 270.28L437.066 270.273L437.049 270.249C437.035 270.228 437.014 270.198 436.988 270.159C436.936 270.081 436.862 269.969 436.773 269.829C436.596 269.549 436.359 269.156 436.12 268.701C435.65 267.809 435.136 266.615 435.102 265.57C435.063 264.348 435.636 263.507 436.481 262.894C437.294 262.304 438.379 261.91 439.401 261.544L439.481 261.516C440.505 261.149 441.473 260.802 442.232 260.313C442.989 259.824 443.496 259.219 443.614 258.337C443.807 256.905 443.711 255.658 443.29 254.556C442.871 253.457 442.119 252.472 440.95 251.578C438.476 249.686 435.694 249.283 432.969 250.725C432.36 251.048 431.696 251.669 431.163 252.244C430.902 252.526 430.682 252.787 430.527 252.976C430.45 253.071 430.39 253.148 430.349 253.201L430.302 253.261L430.291 253.276L430.288 253.279L429.517 252.762L429.518 252.76L429.522 252.755L429.536 252.737L429.588 252.67C429.632 252.612 429.697 252.53 429.779 252.429C429.942 252.229 430.175 251.953 430.452 251.654C430.996 251.067 431.749 250.345 432.508 249.944ZM404.391 259.556C403.559 260.049 402.959 260.812 402.959 261.975H402.013C402.013 260.452 402.831 259.424 403.89 258.797C404.928 258.182 408.51 257.451 409.52 257.451V258.389C408.639 258.389 405.243 259.052 404.391 259.556Z" fill="white"/>
<path d="M441.379 270.932C442.245 272.745 441.845 274.742 440.485 275.391C439.125 276.041 437.32 275.098 436.454 273.285C435.587 271.471 435.988 269.475 437.348 268.825C438.708 268.175 440.512 269.118 441.379 270.932Z" fill="white"/>
<path fill-rule="evenodd" clip-rule="evenodd" d="M431.384 255.599C429.855 249.728 425.096 245.446 419.462 245.446C413.828 245.446 409.069 249.728 407.54 255.599C407.205 256.886 407.025 258.249 407.025 259.66H431.899C431.899 258.249 431.719 256.886 431.384 255.599ZM427.607 255.599C426.236 252.013 423.105 249.508 419.462 249.508C415.819 249.508 412.689 252.013 411.318 255.599H427.607Z" fill="white"/>
<path fill-rule="evenodd" clip-rule="evenodd" d="M365.524 240.116L392.558 286.233H446.625L473.659 240.116L446.625 194H392.558L365.524 240.116ZM389.387 188.591L359.183 240.116L389.387 291.641H449.796L480 240.116L449.796 188.591H389.387Z" fill="#00E4A2"/>
<path fill-rule="evenodd" clip-rule="evenodd" d="M441.105 221.203H398.464V242.524H441.105V221.203ZM398.464 217.65C396.501 217.65 394.91 219.241 394.91 221.203V242.524C394.91 244.486 396.501 246.077 398.464 246.077H441.105C443.068 246.077 444.659 244.486 444.659 242.524V221.203C444.659 219.241 443.068 217.65 441.105 217.65H398.464Z" fill="white"/>
<path fill-rule="evenodd" clip-rule="evenodd" d="M417.97 264.248L392.76 260.612L391.461 269.616L416.672 273.252L417.97 264.248ZM391.219 258.552L389.401 271.157L418.213 275.312L420.031 262.707L391.219 258.552Z" fill="white"/>
<path d="M394.301 262.672L396.102 262.932L395.842 264.733L394.041 264.473L394.301 262.672Z" fill="white"/>
<path d="M397.902 263.192L399.703 263.452L399.443 265.252L397.642 264.993L397.902 263.192Z" fill="white"/>
<path d="M401.504 263.711L403.305 263.971L403.045 265.772L401.244 265.512L401.504 263.711Z" fill="white"/>
<path d="M405.105 264.231L406.906 264.491L406.646 266.291L404.845 266.032L405.105 264.231Z" fill="white"/>
<path d="M408.707 264.75L412.308 265.27L412.049 267.07L408.447 266.551L408.707 264.75Z" fill="white"/>
<path d="M414.109 265.529L415.91 265.789L415.13 271.191L411.529 270.672L411.789 268.871L413.589 269.131L414.109 265.529Z" fill="white"/>
<path d="M393.781 266.274L395.582 266.534L395.322 268.335L393.522 268.075L393.781 266.274Z" fill="white"/>
<path d="M397.383 266.794L399.184 267.053L398.924 268.854L397.123 268.594L397.383 266.794Z" fill="white"/>
<path d="M400.984 267.313L406.386 268.092L406.127 269.893L400.724 269.114L400.984 267.313Z" fill="white"/>
<path d="M408.188 268.352L409.988 268.612L409.729 270.412L407.928 270.153L408.188 268.352Z" fill="white"/>
<path fill-rule="evenodd" clip-rule="evenodd" d="M47.4921 249.944C44.3805 248.297 41.1843 248.796 38.456 250.882C37.1707 251.864 36.3056 252.979 35.8205 254.252C35.3366 255.521 35.2419 256.918 35.4478 258.45C35.6099 259.656 36.3241 260.465 37.2358 261.053C38.0897 261.604 39.1526 261.984 40.1376 262.336C40.1802 262.352 40.2226 262.367 40.2649 262.382C41.3167 262.759 42.262 263.11 42.9441 263.605C43.5942 264.076 43.9811 264.661 43.9528 265.543C43.926 266.38 43.4952 267.425 43.0343 268.301C42.8084 268.73 42.584 269.103 42.416 269.369C42.3322 269.501 42.2627 269.606 42.2146 269.678C42.1905 269.714 42.1718 269.741 42.1593 269.759L42.1454 269.779L42.1422 269.784L42.9277 270.282L42.9295 270.28L42.9342 270.273L42.9509 270.249C42.9652 270.228 42.9859 270.198 43.012 270.159C43.0642 270.081 43.1382 269.969 43.2269 269.829C43.4041 269.549 43.6411 269.156 43.8804 268.701C44.3498 267.809 44.8644 266.615 44.8978 265.57C44.9369 264.348 44.364 263.507 43.5191 262.894C42.7062 262.304 41.6212 261.91 40.5992 261.544L40.5193 261.516C39.495 261.149 38.5267 260.802 37.7682 260.313C37.0109 259.824 36.5043 259.219 36.3857 258.337C36.1933 256.905 36.2895 255.658 36.7097 254.556C37.1286 253.457 37.8807 252.472 39.0499 251.578C41.5243 249.686 44.3056 249.283 47.0309 250.725C47.6397 251.048 48.3044 251.669 48.837 252.244C49.098 252.526 49.318 252.787 49.4725 252.976C49.5497 253.071 49.6103 253.148 49.6513 253.201L49.6976 253.261L49.709 253.276L49.7115 253.279L50.4832 252.762L50.4817 252.76L50.4779 252.755L50.4641 252.737L50.4125 252.67C50.3678 252.612 50.303 252.53 50.2211 252.429C50.0575 252.229 49.8248 251.953 49.5477 251.654C49.004 251.067 48.2506 250.345 47.4921 249.944ZM75.6092 259.556C76.4408 260.049 77.0414 260.812 77.0414 261.975H77.9868C77.9868 260.452 77.1693 259.424 76.1102 258.797C75.0717 258.182 71.4903 257.451 70.4801 257.451V258.389C71.3608 258.389 74.7568 259.052 75.6092 259.556Z" fill="white"/>
<path d="M38.6213 270.932C37.755 272.745 38.1553 274.742 39.5152 275.391C40.8752 276.041 42.68 275.098 43.5462 273.285C44.4125 271.471 44.0123 269.475 42.6523 268.825C41.2923 268.175 39.4875 269.118 38.6213 270.932Z" fill="white"/>
<path fill-rule="evenodd" clip-rule="evenodd" d="M48.6155 255.599C50.1444 249.728 54.9035 245.446 60.5375 245.446C66.1716 245.446 70.9306 249.728 72.4596 255.599C72.7947 256.886 72.9746 258.249 72.9746 259.66H48.1004C48.1004 258.249 48.2804 256.886 48.6155 255.599ZM52.3931 255.599C53.7639 252.013 56.8947 249.508 60.5375 249.508C64.1804 249.508 67.3111 252.013 68.682 255.599H52.3931Z" fill="white"/>
<path fill-rule="evenodd" clip-rule="evenodd" d="M114.476 240.116L87.4424 286.233H33.3749L6.34121 240.116L33.3749 194H87.4424L114.476 240.116ZM90.613 188.591L120.817 240.116L90.613 291.641H30.2043L-6.10352e-05 240.116L30.2043 188.591H90.613Z" fill="#00E4A2"/>
<path fill-rule="evenodd" clip-rule="evenodd" d="M38.8949 221.203H81.5364V242.524H38.8949V221.203ZM81.5364 217.65C83.4989 217.65 85.0898 219.241 85.0898 221.203V242.524C85.0898 244.486 83.4989 246.077 81.5364 246.077H38.8949C36.9324 246.077 35.3415 244.486 35.3415 242.524V221.203C35.3415 219.241 36.9324 217.65 38.8949 217.65H81.5364Z" fill="white"/>
<path fill-rule="evenodd" clip-rule="evenodd" d="M62.0299 264.248L87.2402 260.612L88.5388 269.616L63.3285 273.252L62.0299 264.248ZM88.7812 258.552L90.5992 271.157L61.7874 275.312L59.9695 262.707L88.7812 258.552Z" fill="white"/>
<path d="M85.6992 262.672L83.8985 262.932L84.1582 264.733L85.9589 264.473L85.6992 262.672Z" fill="white"/>
<path d="M82.0981 263.192L80.2974 263.452L80.5571 265.252L82.3579 264.993L82.0981 263.192Z" fill="white"/>
<path d="M78.4961 263.711L76.6954 263.971L76.9551 265.772L78.7558 265.512L78.4961 263.711Z" fill="white"/>
<path d="M74.895 264.231L73.0943 264.491L73.354 266.291L75.1547 266.032L74.895 264.231Z" fill="white"/>
<path d="M71.2935 264.75L67.692 265.27L67.9517 267.07L71.5532 266.551L71.2935 264.75Z" fill="white"/>
<path d="M65.8916 265.529L64.0909 265.789L64.87 271.191L68.4715 270.672L68.2118 268.871L66.4111 269.131L65.8916 265.529Z" fill="white"/>
<path d="M86.2188 266.274L84.418 266.534L84.6777 268.335L86.4785 268.075L86.2188 266.274Z" fill="white"/>
<path d="M82.6172 266.794L80.8165 267.053L81.0762 268.854L82.8769 268.594L82.6172 266.794Z" fill="white"/>
<path d="M79.0156 267.313L73.6134 268.092L73.8731 269.893L79.2753 269.114L79.0156 267.313Z" fill="white"/>
<path d="M71.8125 268.352L70.0118 268.612L70.2715 270.412L72.0722 270.153L71.8125 268.352Z" fill="white"/>
<path fill-rule="evenodd" clip-rule="evenodd" d="M372.009 121.801C375.121 120.154 378.317 120.652 381.045 122.738C382.33 123.721 383.196 124.836 383.681 126.109C384.165 127.378 384.259 128.774 384.053 130.307C383.891 131.513 383.177 132.321 382.265 132.91C381.412 133.461 380.349 133.841 379.364 134.193C379.321 134.208 379.279 134.223 379.236 134.239C378.184 134.615 377.239 134.966 376.557 135.461C375.907 135.933 375.52 136.517 375.548 137.4C375.575 138.237 376.006 139.282 376.467 140.158C376.693 140.587 376.917 140.96 377.085 141.225C377.169 141.358 377.239 141.463 377.287 141.535C377.311 141.571 377.329 141.598 377.342 141.616L377.356 141.636L377.359 141.641L376.574 142.139L376.572 142.136L376.567 142.13L376.55 142.106C376.536 142.085 376.515 142.055 376.489 142.016C376.437 141.938 376.363 141.826 376.274 141.686C376.097 141.406 375.86 141.012 375.621 140.557C375.151 139.665 374.637 138.472 374.603 137.427C374.564 136.205 375.137 135.364 375.982 134.751C376.795 134.161 377.88 133.767 378.902 133.401L378.982 133.372C380.006 133.006 380.975 132.659 381.733 132.17C382.49 131.681 382.997 131.076 383.116 130.194C383.308 128.762 383.212 127.515 382.792 126.413C382.373 125.314 381.62 124.329 380.451 123.435C377.977 121.543 375.196 121.14 372.47 122.582C371.861 122.904 371.197 123.526 370.664 124.101C370.403 124.383 370.183 124.643 370.029 124.833C369.952 124.928 369.891 125.005 369.85 125.057L369.804 125.117L369.792 125.132L369.79 125.136L369.018 124.619L369.02 124.616L369.023 124.611L369.037 124.593L369.089 124.526C369.133 124.469 369.198 124.387 369.28 124.286C369.444 124.085 369.676 123.81 369.954 123.511C370.497 122.924 371.251 122.202 372.009 121.801ZM343.892 131.413C343.06 131.906 342.46 132.668 342.46 133.832H341.514C341.514 132.309 342.332 131.281 343.391 130.654C344.429 130.039 348.011 129.307 349.021 129.307V130.246C348.14 130.246 344.744 130.909 343.892 131.413Z" fill="white"/>
<path d="M380.88 142.788C381.746 144.602 381.346 146.598 379.986 147.248C378.626 147.898 376.821 146.955 375.955 145.141C375.088 143.328 375.489 141.331 376.849 140.682C378.209 140.032 380.013 140.975 380.88 142.788Z" fill="white"/>
<path fill-rule="evenodd" clip-rule="evenodd" d="M370.886 127.456C369.357 121.585 364.597 117.303 358.963 117.303C353.329 117.303 348.57 121.585 347.041 127.456C346.706 128.743 346.526 130.106 346.526 131.517H371.401C371.401 130.106 371.221 128.743 370.886 127.456ZM367.108 127.456C365.737 123.87 362.606 121.364 358.963 121.364C355.321 121.364 352.19 123.87 350.819 127.456H367.108Z" fill="white"/>
<path fill-rule="evenodd" clip-rule="evenodd" d="M305.025 111.973L332.059 158.089H386.126L413.16 111.973L386.126 65.8567H332.059L305.025 111.973ZM328.888 60.4479L298.684 111.973L328.888 163.498H389.297L419.501 111.973L389.297 60.4479H328.888Z" fill="#00E4A2"/>
<path fill-rule="evenodd" clip-rule="evenodd" d="M380.606 93.0599H337.965V114.381H380.606V93.0599ZM337.965 89.5065C336.002 89.5065 334.411 91.0974 334.411 93.0599V114.381C334.411 116.343 336.002 117.934 337.965 117.934H380.606C382.569 117.934 384.16 116.343 384.16 114.381V93.0599C384.16 91.0974 382.569 89.5065 380.606 89.5065H337.965Z" fill="white"/>
<path fill-rule="evenodd" clip-rule="evenodd" d="M357.471 136.105L332.261 132.469L330.962 141.472L356.173 145.108L357.471 136.105ZM330.72 130.408L328.902 143.013L357.714 147.169L359.532 134.564L330.72 130.408Z" fill="white"/>
<path d="M333.802 134.529L335.603 134.789L335.343 136.59L333.542 136.33L333.802 134.529Z" fill="white"/>
<path d="M337.403 135.049L339.204 135.308L338.944 137.109L337.144 136.849L337.403 135.049Z" fill="white"/>
<path d="M341.005 135.568L342.806 135.828L342.546 137.628L340.745 137.369L341.005 135.568Z" fill="white"/>
<path d="M344.606 136.087L346.407 136.347L346.147 138.148L344.346 137.888L344.606 136.087Z" fill="white"/>
<path d="M348.208 136.607L351.809 137.126L351.55 138.927L347.948 138.408L348.208 136.607Z" fill="white"/>
<path d="M353.61 137.386L355.411 137.646L354.631 143.048L351.03 142.529L351.29 140.728L353.09 140.988L353.61 137.386Z" fill="white"/>
<path d="M333.282 138.131L335.083 138.39L334.823 140.191L333.023 139.931L333.282 138.131Z" fill="white"/>
<path d="M336.884 138.65L338.685 138.91L338.425 140.711L336.624 140.451L336.884 138.65Z" fill="white"/>
<path d="M340.485 139.17L345.888 139.949L345.628 141.749L340.226 140.97L340.485 139.17Z" fill="white"/>
<path d="M347.689 140.208L349.489 140.468L349.23 142.269L347.429 142.009L347.689 140.208Z" fill="white"/>
<path fill-rule="evenodd" clip-rule="evenodd" d="M107.991 121.801C104.879 120.154 101.683 120.652 98.955 122.738C97.6698 123.721 96.8046 124.836 96.3195 126.109C95.8356 127.378 95.7409 128.774 95.9469 130.307C96.109 131.513 96.8231 132.321 97.7349 132.91C98.5887 133.461 99.6516 133.841 100.637 134.193C100.679 134.208 100.722 134.223 100.764 134.239C101.816 134.615 102.761 134.966 103.443 135.461C104.093 135.933 104.48 136.517 104.452 137.4C104.425 138.237 103.994 139.282 103.533 140.158C103.307 140.587 103.083 140.96 102.915 141.225C102.831 141.358 102.762 141.463 102.714 141.535C102.69 141.571 102.671 141.598 102.658 141.616L102.644 141.636L102.641 141.641L103.427 142.139L103.429 142.136L103.433 142.13L103.45 142.106C103.464 142.085 103.485 142.055 103.511 142.016C103.563 141.938 103.637 141.826 103.726 141.686C103.903 141.406 104.14 141.012 104.379 140.557C104.849 139.665 105.363 138.472 105.397 137.427C105.436 136.205 104.863 135.364 104.018 134.751C103.205 134.161 102.12 133.767 101.098 133.401L101.018 133.372C99.994 133.006 99.0257 132.659 98.2672 132.17C97.5099 131.681 97.0033 131.076 96.8847 130.194C96.6923 128.762 96.7885 127.515 97.2087 126.413C97.6276 125.314 98.3797 124.329 99.5489 123.435C102.023 121.543 104.805 121.14 107.53 122.582C108.139 122.904 108.803 123.526 109.336 124.101C109.597 124.383 109.817 124.643 109.972 124.833C110.049 124.928 110.109 125.005 110.15 125.057L110.197 125.117L110.208 125.132L110.211 125.136L110.982 124.619L110.981 124.616L110.977 124.611L110.963 124.593L110.912 124.526C110.867 124.469 110.802 124.387 110.72 124.286C110.557 124.085 110.324 123.81 110.047 123.511C109.503 122.924 108.75 122.202 107.991 121.801ZM136.108 131.413C136.94 131.906 137.54 132.668 137.54 133.832H138.486C138.486 132.309 137.668 131.281 136.609 130.654C135.571 130.039 131.989 129.307 130.979 129.307V130.246C131.86 130.246 135.256 130.909 136.108 131.413Z" fill="white"/>
<path d="M99.1203 142.788C98.254 144.602 98.6543 146.598 100.014 147.248C101.374 147.898 103.179 146.955 104.045 145.141C104.912 143.328 104.511 141.331 103.151 140.682C101.791 140.032 99.9865 140.975 99.1203 142.788Z" fill="white"/>
<path fill-rule="evenodd" clip-rule="evenodd" d="M109.114 127.456C110.643 121.585 115.403 117.303 121.037 117.303C126.671 117.303 131.43 121.585 132.959 127.456C133.294 128.743 133.474 130.106 133.474 131.517H108.599C108.599 130.106 108.779 128.743 109.114 127.456ZM112.892 127.456C114.263 123.87 117.394 121.364 121.037 121.364C124.679 121.364 127.81 123.87 129.181 127.456H112.892Z" fill="white"/>
<path fill-rule="evenodd" clip-rule="evenodd" d="M174.975 111.973L147.941 158.089H93.874L66.8402 111.973L93.874 65.8567H147.941L174.975 111.973ZM151.112 60.4479L181.316 111.973L151.112 163.498H90.7033L60.499 111.973L90.7033 60.4479H151.112Z" fill="#00E4A2"/>
<path fill-rule="evenodd" clip-rule="evenodd" d="M99.394 93.0599H142.035V114.381H99.394V93.0599ZM142.035 89.5065C143.998 89.5065 145.589 91.0974 145.589 93.0599V114.381C145.589 116.343 143.998 117.934 142.035 117.934H99.394C97.4314 117.934 95.8405 116.343 95.8405 114.381V93.0599C95.8405 91.0974 97.4314 89.5065 99.394 89.5065H142.035Z" fill="white"/>
<path fill-rule="evenodd" clip-rule="evenodd" d="M122.529 136.105L147.739 132.469L149.038 141.472L123.827 145.108L122.529 136.105ZM149.28 130.408L151.098 143.013L122.286 147.169L120.468 134.564L149.28 130.408Z" fill="white"/>
<path d="M146.198 134.529L144.397 134.789L144.657 136.59L146.457 136.33L146.198 134.529Z" fill="white"/>
<path d="M142.597 135.049L140.796 135.308L141.056 137.109L142.856 136.849L142.597 135.049Z" fill="white"/>
<path d="M138.995 135.568L137.194 135.828L137.454 137.628L139.255 137.369L138.995 135.568Z" fill="white"/>
<path d="M135.394 136.087L133.593 136.347L133.853 138.148L135.654 137.888L135.394 136.087Z" fill="white"/>
<path d="M131.792 136.607L128.191 137.126L128.45 138.927L132.052 138.408L131.792 136.607Z" fill="white"/>
<path d="M126.39 137.386L124.589 137.646L125.369 143.048L128.97 142.529L128.71 140.728L126.91 140.988L126.39 137.386Z" fill="white"/>
<path d="M146.718 138.131L144.917 138.39L145.177 140.191L146.977 139.931L146.718 138.131Z" fill="white"/>
<path d="M143.116 138.65L141.315 138.91L141.575 140.711L143.375 140.451L143.116 138.65Z" fill="white"/>
<path d="M139.515 139.17L134.112 139.949L134.372 141.749L139.774 140.97L139.515 139.17Z" fill="white"/>
<path d="M132.311 140.208L130.51 140.468L130.77 142.269L132.571 142.009L132.311 140.208Z" fill="white"/>
<path fill-rule="evenodd" clip-rule="evenodd" d="M152.033 240.039L197.015 316.785H286.977L331.959 240.039L286.977 163.294H197.015L152.033 240.039ZM191.739 154.293L141.482 240.039L191.739 325.786H292.253L342.51 240.039L292.253 154.293H191.739Z" fill="#00E4A2"/>
<path d="M199.599 145.718L241.996 171.918V225.748L199.599 199.548V145.718Z" fill="#002238"/>
<path d="M241.996 225.748L284.393 199.548V145.718L241.996 171.918V225.748Z" fill="#00121E"/>
<path d="M284.393 145.718L241.996 171.918L199.599 145.718L241.996 119.518L284.393 145.718Z" fill="#032B46"/>
<path d="M135.766 250.043L178.163 276.243V330.073L135.766 303.873V250.043Z" fill="#002238"/>
<path d="M178.163 330.073L220.559 303.873V250.043L178.163 276.243V330.073Z" fill="#00121E"/>
<path d="M220.559 250.043L178.163 276.243L135.766 250.043L178.163 223.843L220.559 250.043Z" fill="#032B46"/>
<path d="M262.956 250.043L305.353 276.243V330.073L262.956 303.873V250.043Z" fill="#002238"/>
<path d="M305.353 330.073L347.75 303.873V250.043L305.353 276.243V330.073Z" fill="#00121E"/>
<path d="M347.75 250.043L305.353 276.243L262.956 250.043L305.353 223.843L347.75 250.043Z" fill="#032B46"/>
<path fill-rule="evenodd" clip-rule="evenodd" d="M222.699 189.299L217.489 197.129L210.35 192.379L215.561 184.549L222.699 189.299ZM266.524 197.072L261.493 189.242L268.706 184.606L273.738 192.437L266.524 197.072ZM212.279 204.96L191.437 236.281L184.299 231.531L205.14 200.21L212.279 204.96ZM271.556 204.902L278.77 200.267L298.896 231.588L291.683 236.224L271.556 204.902ZM186.227 244.111L181.017 251.942L173.878 247.192L179.088 239.361L186.227 244.111ZM301.746 251.884L296.714 244.054L303.928 239.419L308.96 247.249L301.746 251.884ZM211.002 293.869H200.79V285.294H211.002V293.869ZM221.214 293.869V285.294H262.063V293.869H221.214ZM282.487 293.869H272.275V285.294H282.487V293.869Z" fill="#00E4A2"/>
</svg>
